<?xml version="1.0" encoding="UTF-8" standalone="no"?>
<!-- Created with Inkscape (http://www.inkscape.org/) -->

<svg
   xmlns:dc="http://purl.org/dc/elements/1.1/"
   xmlns:cc="http://creativecommons.org/ns#"
   xmlns:rdf="http://www.w3.org/1999/02/22-rdf-syntax-ns#"
   xmlns:svg="http://www.w3.org/2000/svg"
   xmlns="http://www.w3.org/2000/svg"
   xmlns:sodipodi="http://sodipodi.sourceforge.net/DTD/sodipodi-0.dtd"
   xmlns:inkscape="http://www.inkscape.org/namespaces/inkscape"
   width="300mm"
   height="100mm"
   viewBox="0 0 1062.9921 354.33071"
   id="svg2"
   version="1.1"
   inkscape:version="0.91 r13725"
   sodipodi:docname="logo.svg"
   inkscape:export-filename="C:\Users\willian.rodrigues\Desktop\Willian\Logo Bee.png"
   inkscape:export-xdpi="86.14341"
   inkscape:export-ydpi="86.14341">
  <defs
     id="defs4">
    <clipPath
       clipPathUnits="userSpaceOnUse"
       id="clipPath4294">
      <path
         style="opacity:1;fill:#ff7f2a;fill-opacity:1;stroke:none;stroke-width:1;stroke-miterlimit:4;stroke-dasharray:none;stroke-dashoffset:0;stroke-opacity:1"
         d="m 468.84021,470.29765 0,111.76689 -96.79297,55.88344 -96.79297,-55.88344 z"
         id="path4296"
         inkscape:connector-curvature="0"
         sodipodi:nodetypes="ccccc" />
    </clipPath>
  </defs>
  <sodipodi:namedview
     id="base"
     pagecolor="#ffffff"
     bordercolor="#666666"
     borderopacity="1.0"
     inkscape:pageopacity="0.0"
     inkscape:pageshadow="2"
     inkscape:zoom="0.69846438"
     inkscape:cx="791.54302"
     inkscape:cy="310.51707"
     inkscape:document-units="px"
     inkscape:current-layer="layer1"
     showgrid="false"
     showguides="false"
     inkscape:window-width="1920"
     inkscape:window-height="1017"
     inkscape:window-x="-8"
     inkscape:window-y="-8"
     inkscape:window-maximized="1" />
  <metadata
     id="metadata7">
    <rdf:RDF>
      <cc:Work
         rdf:about="">
        <dc:format>image/svg+xml</dc:format>
        <dc:type
           rdf:resource="http://purl.org/dc/dcmitype/StillImage" />
        <dc:title></dc:title>
      </cc:Work>
    </rdf:RDF>
  </metadata>
  <g
     inkscape:label="Camada 1"
     inkscape:groupmode="layer"
     id="layer1"
     transform="translate(0,-698.03146)">
    <text
       xml:space="preserve"
       style="font-style:normal;font-weight:normal;font-size:40px;line-height:125%;font-family:sans-serif;letter-spacing:0px;word-spacing:0px;fill:#000000;fill-opacity:1;stroke:none;stroke-width:1px;stroke-linecap:butt;stroke-linejoin:miter;stroke-opacity:1"
       x="51.631046"
       y="534.02704"
       id="text4177"
       sodipodi:linespacing="125%"><tspan
         sodipodi:role="line"
         id="tspan4179"
         x="51.631046"
         y="534.02704"
         style="font-style:normal;font-variant:normal;font-weight:normal;font-stretch:normal;font-family:'Yu Gothic UI';-inkscape-font-specification:'Yu Gothic UI'" /></text>
    <text
       xml:space="preserve"
       style="font-style:normal;font-weight:normal;font-size:40px;line-height:125%;font-family:sans-serif;letter-spacing:0px;word-spacing:0px;fill:#000000;fill-opacity:1;stroke:none;stroke-width:1px;stroke-linecap:butt;stroke-linejoin:miter;stroke-opacity:1"
       x="-572.68494"
       y="877.69324"
       id="text3350"
       sodipodi:linespacing="125%"><tspan
         sodipodi:role="line"
         id="tspan3352"
         x="-572.68494"
         y="877.69324" /></text>
    <path
       sodipodi:type="star"
       style="opacity:1;fill:#ff5555;fill-opacity:1;stroke:none;stroke-width:2;stroke-linecap:butt;stroke-linejoin:round;stroke-miterlimit:4;stroke-dasharray:none;stroke-dashoffset:0;stroke-opacity:1"
       id="path4267"
       sodipodi:sides="6"
       sodipodi:cx="172.16225"
       sodipodi:cy="875.92285"
       sodipodi:r1="144.33757"
       sodipodi:r2="125"
       sodipodi:arg1="0"
       sodipodi:arg2="0.52359878"
       inkscape:flatsided="true"
       inkscape:rounded="0"
       inkscape:randomized="0"
       d="m 316.49982,875.92285 -72.16879,125.00005 -144.337568,0 -72.168785,-125.00005 72.168785,-125 144.337568,0 z" />
    <g
       style="font-style:normal;font-variant:normal;font-weight:300;font-stretch:normal;font-size:174.38691711px;line-height:125%;font-family:'Open Sans';-inkscape-font-specification:'Open Sans Light';letter-spacing:0px;word-spacing:0px;fill:#000000;fill-opacity:1;stroke:none;stroke-width:1px;stroke-linecap:butt;stroke-linejoin:miter;stroke-opacity:1"
       id="text3346"
       transform="translate(-4.1647575,0)">
      <path
         inkscape:connector-curvature="0"
         d="m 429.74436,833.93638 q 0,18.05177 -12.26158,27.67371 -12.26158,9.62193 -34.74114,9.62193 l -19.24387,0 0,51.43052 -8.68529,0 0,-124.4891 30.48365,0 q 44.44823,0 44.44823,35.76294 z m -66.24659,29.80245 17.11512,0 q 21.03202,0 30.3985,-6.89714 9.36649,-6.98229 9.36649,-22.56471 0,-14.39033 -8.85559,-21.28747 -8.85558,-6.98228 -27.41825,-6.98228 l -20.60627,0 0,57.7316 z"
         id="path4203" />
      <path
         inkscape:connector-curvature="0"
         d="m 516.93782,878.72521 -50.57902,0 -17.37057,43.93733 -9.62194,0 50.06812,-125 5.53474,0 49.04633,125 -9.79224,0 -17.28542,-43.93733 z m -47.42847,-7.83379 44.53337,0 -16.94482,-44.87398 q -2.12875,-5.27929 -5.10899,-14.64577 -2.29905,8.17438 -5.02384,14.81607 l -17.45572,44.70368 z"
         id="path4205" />
      <path
         inkscape:connector-curvature="0"
         d="m 570.24164,868.42207 0,54.24047 -8.68529,0 0,-124.4891 29.63215,0 q 23.16076,0 34.23025,8.60013 11.06948,8.51499 11.06948,25.71526 0,12.51703 -6.64169,21.11717 -6.55654,8.60013 -20.01022,12.34673 l 33.8045,56.70981 -10.38829,0 -32.10149,-54.24047 -30.9094,0 z m 0,-7.49318 23.75681,0 q 15.75272,0 24.43801,-6.98229 8.68528,-7.06744 8.68528,-20.77657 0,-14.22003 -8.51498,-20.69141 -8.51499,-6.47139 -27.75886,-6.47139 l -20.60626,0 0,54.92166 z"
         id="path4207" />
      <path
         inkscape:connector-curvature="0"
         d="m 697.54068,922.66254 -8.77043,0 0,-116.31471 -40.44619,0 0,-8.17439 89.66281,0 0,8.17439 -40.44619,0 0,116.31471 z"
         id="path4209" />
      <path
         inkscape:connector-curvature="0"
         d="m 752.20688,798.17344 43.42643,0 q 25.37466,0 37.63624,7.57834 12.34673,7.49318 12.34673,23.41621 0,10.47343 -5.36444,17.88147 -5.36444,7.40804 -14.13488,9.53678 l 0,0.8515 q 11.58038,3.0654 16.77453,10.21799 5.19414,7.15258 5.19414,18.56267 0,16.94482 -12.77248,26.73705 -12.68733,9.70709 -34.656,9.70709 l -48.45027,0 0,-124.4891 z m 33.6342,47.76907 10.13283,0 q 7.23774,0 11.15463,-2.98024 4.00205,-2.98025 4.00205,-8.85559 0,-10.47343 -15.83788,-10.47343 l -9.45163,0 0,22.30926 z m 0,24.60831 0,26.14101 11.83583,0 q 15.75272,0 15.75272,-13.28338 0,-6.21594 -4.25749,-9.53678 -4.17234,-3.32085 -12.17643,-3.32085 l -11.15463,0 z"
         style="font-style:normal;font-variant:normal;font-weight:800;font-stretch:normal;font-family:'Open Sans';-inkscape-font-specification:'Open Sans Ultra-Bold'"
         id="path4211" />
      <path
         inkscape:connector-curvature="0"
         d="m 943.62377,922.66254 -73.91008,0 0,-124.4891 73.91008,0 0,26.9925 -40.27589,0 0,19.58447 37.29564,0 0,26.99251 -37.29564,0 0,23.50136 40.27589,0 0,27.41826 z"
         style="font-style:normal;font-variant:normal;font-weight:800;font-stretch:normal;font-family:'Open Sans';-inkscape-font-specification:'Open Sans Ultra-Bold'"
         id="path4213" />
      <path
         inkscape:connector-curvature="0"
         d="m 1039.3322,922.66254 -73.91008,0 0,-124.4891 73.91008,0 0,26.9925 -40.27588,0 0,19.58447 37.29568,0 0,26.99251 -37.29568,0 0,23.50136 40.27588,0 0,27.41826 z"
         style="font-style:normal;font-variant:normal;font-weight:800;font-stretch:normal;font-family:'Open Sans';-inkscape-font-specification:'Open Sans Ultra-Bold'"
         id="path4215" />
    </g>
    <g
       style="font-style:normal;font-variant:normal;font-weight:300;font-stretch:normal;font-size:29.56715202px;line-height:125%;font-family:Roboto;-inkscape-font-specification:'Roboto Light';letter-spacing:0px;word-spacing:0px;fill:#000000;fill-opacity:1;stroke:none;stroke-width:1px;stroke-linecap:butt;stroke-linejoin:miter;stroke-opacity:1"
       id="text3358"
       transform="translate(-4.1647575,0)">
      <path
         inkscape:connector-curvature="0"
         d="m 370.98176,934.38997 -7.20411,0 0,19.5045 -1.77576,0 0,-19.5045 -7.18967,0 0,-1.5159 16.16954,0 0,1.5159 z"
         style="font-style:normal;font-variant:normal;font-weight:300;font-stretch:normal;font-family:Roboto;-inkscape-font-specification:'Roboto Light';fill:#000000"
         id="path4218" />
      <path
         inkscape:connector-curvature="0"
         d="m 385.99633,943.81738 -9.83166,0 0,8.57563 11.30424,0 0,1.50146 -13.08,0 0,-21.0204 13.00781,0 0,1.5159 -11.23205,0 0,7.92596 9.83166,0 0,1.50145 z"
         style="font-style:normal;font-variant:normal;font-weight:300;font-stretch:normal;font-family:Roboto;-inkscape-font-specification:'Roboto Light';fill:#000000"
         id="path4220" />
      <path
         inkscape:connector-curvature="0"
         d="m 393.54692,932.87407 7.75272,18.55166 7.78159,-18.55166 2.36768,0 0,21.0204 -1.77576,0 0,-9.15311 0.14437,-9.38411 -7.8249,18.53722 -1.37152,0 -7.79603,-18.46503 0.14437,9.25417 0,9.21086 -1.77576,0 0,-21.0204 2.35324,0 z"
         style="font-style:normal;font-variant:normal;font-weight:300;font-stretch:normal;font-family:Roboto;-inkscape-font-specification:'Roboto Light';fill:#000000"
         id="path4222" />
      <path
         inkscape:connector-curvature="0"
         d="m 418.55196,945.33328 0,8.56119 -1.77577,0 0,-21.0204 7.1608,0 q 3.27722,0 5.16848,1.67471 1.90569,1.6747 1.90569,4.60543 0,2.9596 -1.83351,4.57655 -1.81907,1.60252 -5.28397,1.60252 l -5.34172,0 z m 0,-1.50146 5.38503,0 q 2.58424,0 3.94132,-1.22715 1.35709,-1.22715 1.35709,-3.42159 0,-2.18 -1.35709,-3.4649 -1.34265,-1.29934 -3.82582,-1.32821 l -5.50053,0 0,9.44185 z"
         style="font-style:normal;font-variant:normal;font-weight:300;font-stretch:normal;font-family:Roboto;-inkscape-font-specification:'Roboto Light';fill:#000000"
         id="path4224" />
      <path
         inkscape:connector-curvature="0"
         d="m 436.75712,952.39301 10.38027,0 0,1.50146 -12.17047,0 0,-21.0204 1.7902,0 0,19.51894 z"
         style="font-style:normal;font-variant:normal;font-weight:300;font-stretch:normal;font-family:Roboto;-inkscape-font-specification:'Roboto Light';fill:#000000"
         id="path4226" />
      <path
         inkscape:connector-curvature="0"
         d="m 462.19527,948.00414 -9.54292,0 -2.16556,5.89033 -1.86239,0 7.95484,-21.0204 1.68914,0 7.95483,21.0204 -1.84794,0 -2.18,-5.89033 z m -8.99431,-1.51589 8.43126,0 -4.21563,-11.44861 -4.21563,11.44861 z"
         style="font-style:normal;font-variant:normal;font-weight:300;font-stretch:normal;font-family:Roboto;-inkscape-font-specification:'Roboto Light';fill:#000000"
         id="path4228" />
      <path
         inkscape:connector-curvature="0"
         d="m 481.74308,934.38997 -7.20411,0 0,19.5045 -1.77576,0 0,-19.5045 -7.18967,0 0,-1.5159 16.16954,0 0,1.5159 z"
         style="font-style:normal;font-variant:normal;font-weight:300;font-stretch:normal;font-family:Roboto;-inkscape-font-specification:'Roboto Light';fill:#000000"
         id="path4230" />
      <path
         inkscape:connector-curvature="0"
         d="m 496.75765,943.81738 -9.83166,0 0,8.57563 11.30424,0 0,1.50146 -13.08,0 0,-21.0204 13.00781,0 0,1.5159 -11.23205,0 0,7.92596 9.83166,0 0,1.50145 z"
         style="font-style:normal;font-variant:normal;font-weight:300;font-stretch:normal;font-family:Roboto;-inkscape-font-specification:'Roboto Light';fill:#000000"
         id="path4232" />
      <path
         inkscape:connector-curvature="0"
         d="m 520.75209,944.07725 -9.80278,0 0,9.81722 -1.77577,0 0,-21.0204 13.02226,0 0,1.5159 -11.24649,0 0,8.17139 9.80278,0 0,1.51589 z"
         style="font-style:normal;font-variant:normal;font-weight:300;font-stretch:normal;font-family:Roboto;-inkscape-font-specification:'Roboto Light';fill:#000000"
         id="path4234" />
      <path
         inkscape:connector-curvature="0"
         d="m 533.65885,945.1456 -6.10689,0 0,8.74887 -1.7902,0 0,-21.0204 6.82875,0 q 3.36384,0 5.25509,1.63139 1.89126,1.63139 1.89126,4.56212 0,2.02119 -1.18384,3.56596 -1.18384,1.54477 -3.17616,2.13669 l 5.2551,8.93656 0,0.18768 -1.89126,0 -5.08185,-8.74887 z m -6.10689,-1.5159 5.44278,0 q 2.23775,0 3.59484,-1.27046 1.35708,-1.27047 1.35708,-3.29166 0,-2.22331 -1.41483,-3.45046 -1.41483,-1.22715 -3.9702,-1.22715 l -5.00967,0 0,9.23973 z"
         style="font-style:normal;font-variant:normal;font-weight:300;font-stretch:normal;font-family:Roboto;-inkscape-font-specification:'Roboto Light';fill:#000000"
         id="path4236" />
      <path
         inkscape:connector-curvature="0"
         d="m 555.92083,948.00414 -9.54292,0 -2.16556,5.89033 -1.86238,0 7.95483,-21.0204 1.68914,0 7.95484,21.0204 -1.84795,0 -2.18,-5.89033 z m -8.99431,-1.51589 8.43126,0 -4.21563,-11.44861 -4.21563,11.44861 z"
         style="font-style:normal;font-variant:normal;font-weight:300;font-stretch:normal;font-family:Roboto;-inkscape-font-specification:'Roboto Light';fill:#000000"
         id="path4238" />
      <path
         inkscape:connector-curvature="0"
         d="m 565.406,932.87407 7.75272,18.55166 7.78159,-18.55166 2.36768,0 0,21.0204 -1.77576,0 0,-9.15311 0.14437,-9.38411 -7.8249,18.53722 -1.37153,0 -7.79602,-18.46503 0.14437,9.25417 0,9.21086 -1.77576,0 0,-21.0204 2.35324,0 z"
         style="font-style:normal;font-variant:normal;font-weight:300;font-stretch:normal;font-family:Roboto;-inkscape-font-specification:'Roboto Light';fill:#000000"
         id="path4240" />
      <path
         inkscape:connector-curvature="0"
         d="m 600.24268,943.81738 -9.83166,0 0,8.57563 11.30424,0 0,1.50146 -13.08,0 0,-21.0204 13.00781,0 0,1.5159 -11.23205,0 0,7.92596 9.83166,0 0,1.50145 z"
         style="font-style:normal;font-variant:normal;font-weight:300;font-stretch:normal;font-family:Roboto;-inkscape-font-specification:'Roboto Light';fill:#000000"
         id="path4242" />
      <path
         inkscape:connector-curvature="0"
         d="m 609.32362,948.2207 0.64966,3.26278 0.79404,-3.11841 4.56212,-15.491 1.60252,0 4.50437,15.491 0.7796,3.14728 0.69298,-3.29165 3.79696,-15.34663 1.81907,0 -5.38503,21.0204 -1.70358,0 -4.76424,-16.44384 -0.53417,-2.07894 -0.51974,2.07894 -4.87973,16.44384 -1.70358,0 -5.37059,-21.0204 1.81907,0 3.84027,15.34663 z"
         style="font-style:normal;font-variant:normal;font-weight:300;font-stretch:normal;font-family:Roboto;-inkscape-font-specification:'Roboto Light';fill:#000000"
         id="path4244" />
      <path
         inkscape:connector-curvature="0"
         d="m 647.48083,944.5248 q 0,2.90186 -1.0106,5.09629 -0.99616,2.19444 -2.85854,3.37828 -1.86238,1.18384 -4.30225,1.18384 -3.68146,0 -5.94808,-2.62755 -2.26662,-2.64198 -2.26662,-7.11748 l 0,-2.16556 q 0,-2.87298 1.01059,-5.08186 1.02503,-2.22331 2.88742,-3.40715 1.86238,-1.19828 4.28781,-1.19828 2.42543,0 4.27338,1.16941 1.86239,1.1694 2.87298,3.30609 1.0106,2.13669 1.05391,4.95192 l 0,2.51205 z m -1.77576,-2.28106 q 0,-3.79695 -1.71802,-5.94808 -1.71801,-2.15112 -4.70649,-2.15112 -2.93072,0 -4.67761,2.16556 -1.73245,2.15113 -1.73245,6.02026 l 0,2.19444 q 0,3.73921 1.73245,5.93364 1.73245,2.18 4.70649,2.18 3.01735,0 4.70649,-2.15112 1.68914,-2.16556 1.68914,-6.02027 l 0,-2.22331 z"
         style="font-style:normal;font-variant:normal;font-weight:300;font-stretch:normal;font-family:Roboto;-inkscape-font-specification:'Roboto Light';fill:#000000"
         id="path4246" />
      <path
         inkscape:connector-curvature="0"
         d="m 659.83896,945.1456 -6.10688,0 0,8.74887 -1.7902,0 0,-21.0204 6.82874,0 q 3.36384,0 5.2551,1.63139 1.89126,1.63139 1.89126,4.56212 0,2.02119 -1.18384,3.56596 -1.18384,1.54477 -3.17616,2.13669 l 5.2551,8.93656 0,0.18768 -1.89126,0 -5.08186,-8.74887 z m -6.10688,-1.5159 5.44278,0 q 2.23775,0 3.59483,-1.27046 1.35709,-1.27047 1.35709,-3.29166 0,-2.22331 -1.41484,-3.45046 -1.41483,-1.22715 -3.97019,-1.22715 l -5.00967,0 0,9.23973 z"
         style="font-style:normal;font-variant:normal;font-weight:300;font-stretch:normal;font-family:Roboto;-inkscape-font-specification:'Roboto Light';fill:#000000"
         id="path4248" />
      <path
         inkscape:connector-curvature="0"
         d="m 675.48877,943.45646 -2.9596,2.91629 0,7.52172 -1.77576,0 0,-21.0204 1.77576,0 0,11.33312 10.77007,-11.33312 2.23774,0 -8.80662,9.35523 9.48517,11.66517 -2.16557,0 -8.56119,-10.43801 z"
         style="font-style:normal;font-variant:normal;font-weight:300;font-stretch:normal;font-family:Roboto;-inkscape-font-specification:'Roboto Light';fill:#000000"
         id="path4250" />
      <path
         inkscape:connector-curvature="0"
         d="m 712.20227,953.89447 -1.7902,0 0,-10.07709 -12.01165,0 0,10.07709 -1.77576,0 0,-21.0204 1.77576,0 0,9.44186 12.01165,0 0,-9.44186 1.7902,0 0,21.0204 z"
         style="font-style:normal;font-variant:normal;font-weight:300;font-stretch:normal;font-family:Roboto;-inkscape-font-specification:'Roboto Light';fill:#cccccc"
         id="path4252" />
      <path
         inkscape:connector-curvature="0"
         d="m 731.38917,934.38997 -7.20411,0 0,19.5045 -1.77576,0 0,-19.5045 -7.18967,0 0,-1.5159 16.16954,0 0,1.5159 z"
         style="font-style:normal;font-variant:normal;font-weight:300;font-stretch:normal;font-family:Roboto;-inkscape-font-specification:'Roboto Light';fill:#cccccc"
         id="path4254" />
      <path
         inkscape:connector-curvature="0"
         d="m 737.14956,932.87407 7.75272,18.55166 7.78159,-18.55166 2.36768,0 0,21.0204 -1.77576,0 0,-9.15311 0.14437,-9.38411 -7.8249,18.53722 -1.37153,0 -7.79602,-18.46503 0.14437,9.25417 0,9.21086 -1.77576,0 0,-21.0204 2.35324,0 z"
         style="font-style:normal;font-variant:normal;font-weight:300;font-stretch:normal;font-family:Roboto;-inkscape-font-specification:'Roboto Light';fill:#cccccc"
         id="path4256" />
      <path
         inkscape:connector-curvature="0"
         d="m 762.16903,952.39301 10.38027,0 0,1.50146 -12.17046,0 0,-21.0204 1.79019,0 0,19.51894 z"
         style="font-style:normal;font-variant:normal;font-weight:300;font-stretch:normal;font-family:Roboto;-inkscape-font-specification:'Roboto Light';fill:#cccccc"
         id="path4258" />
      <path
         inkscape:connector-curvature="0"
         d="m 776.46177,943.1244 1.02503,-10.25033 10.5102,0 0,1.60252 -9.02318,0 -0.73629,7.10305 q 1.68914,-1.15497 3.95576,-1.15497 2.84411,0 4.53325,1.84795 1.68914,1.84794 1.68914,4.92304 0,3.32053 -1.64583,5.15404 -1.64583,1.83351 -4.63431,1.83351 -2.74304,0 -4.44662,-1.53033 -1.70358,-1.53033 -1.94901,-4.28781 l 1.66027,0 q 0.24543,2.15112 1.45814,3.26278 1.21272,1.09722 3.27722,1.09722 2.25219,0 3.39272,-1.42928 1.15497,-1.42927 1.15497,-4.07125 0,-2.30994 -1.28491,-3.76808 -1.2849,-1.45815 -3.50821,-1.45815 -1.22715,0 -2.13669,0.31762 -0.90953,0.30318 -1.92013,1.19828 l -1.37152,-0.38981 z"
         style="font-style:normal;font-variant:normal;font-weight:300;font-stretch:normal;font-family:Roboto;-inkscape-font-specification:'Roboto Light';fill:#cccccc"
         id="path4260" />
      <path
         inkscape:connector-curvature="0"
         d="m 814.47459,947.34003 q -0.36093,3.32053 -2.38212,5.08186 -2.00675,1.76132 -5.35616,1.76132 -2.3388,0 -4.14344,-1.1694 -1.7902,-1.16941 -2.77192,-3.30609 -0.98172,-2.15113 -0.99616,-4.90861 l 0,-2.72861 q 0,-2.8008 0.98172,-4.96636 0.98172,-2.16556 2.81523,-3.33497 1.84795,-1.18384 4.24451,-1.18384 3.37828,0 5.32728,1.83351 1.96345,1.81907 2.28106,5.03854 l -1.7902,0 q -0.6641,-5.35615 -5.81814,-5.35615 -2.85855,0 -4.56212,2.13668 -1.68914,2.13669 -1.68914,5.90477 l 0,2.5698 q 0,3.63815 1.64583,5.80371 1.66026,2.16556 4.47549,2.16556 2.78636,0 4.2012,-1.32821 1.41483,-1.34265 1.74688,-4.01351 l 1.7902,0 z"
         style="font-style:normal;font-variant:normal;font-weight:300;font-stretch:normal;font-family:Roboto;-inkscape-font-specification:'Roboto Light';fill:#cccccc"
         id="path4262" />
      <path
         inkscape:connector-curvature="0"
         d="m 830.71631,948.72599 q 0,-1.74688 -1.22715,-2.75748 -1.22716,-1.02503 -4.48994,-1.93457 -3.26278,-0.92397 -4.76423,-2.00675 -2.13669,-1.53034 -2.13669,-4.01351 0,-2.411 1.97788,-3.91245 1.99231,-1.5159 5.08185,-1.5159 2.09338,0 3.73921,0.80848 1.66026,0.80847 2.5698,2.25218 0.90953,1.44371 0.90953,3.21947 l -1.79019,0 q 0,-2.15112 -1.47259,-3.45046 -1.47258,-1.31377 -3.95576,-1.31377 -2.41099,0 -3.84026,1.08278 -1.42928,1.06834 -1.42928,2.80079 0,1.60252 1.28491,2.61311 1.2849,1.0106 4.11457,1.7902 2.82966,0.76517 4.28781,1.60252 1.45815,0.82291 2.19444,1.97788 0.73629,1.15497 0.73629,2.72861 0,2.48318 -1.99232,3.98463 -1.97788,1.50146 -5.22622,1.50146 -2.22332,0 -4.0857,-0.79404 -1.84795,-0.79404 -2.81523,-2.22331 -0.95285,-1.42927 -0.95285,-3.27722 l 1.77576,0 q 0,2.22331 1.66027,3.50821 1.66026,1.2849 4.41775,1.2849 2.4543,0 3.94132,-1.08278 1.48702,-1.08278 1.48702,-2.87298 z"
         style="font-style:normal;font-variant:normal;font-weight:300;font-stretch:normal;font-family:Roboto;-inkscape-font-specification:'Roboto Light';fill:#cccccc"
         id="path4264" />
      <path
         inkscape:connector-curvature="0"
         d="m 848.21408,948.72599 q 0,-1.74688 -1.22715,-2.75748 -1.22715,-1.02503 -4.48993,-1.93457 -3.26279,-0.92397 -4.76424,-2.00675 -2.13669,-1.53034 -2.13669,-4.01351 0,-2.411 1.97788,-3.91245 1.99232,-1.5159 5.08185,-1.5159 2.09338,0 3.73921,0.80848 1.66026,0.80847 2.5698,2.25218 0.90954,1.44371 0.90954,3.21947 l -1.7902,0 q 0,-2.15112 -1.47258,-3.45046 -1.47259,-1.31377 -3.95577,-1.31377 -2.41099,0 -3.84026,1.08278 -1.42927,1.06834 -1.42927,2.80079 0,1.60252 1.2849,2.61311 1.2849,1.0106 4.11457,1.7902 2.82967,0.76517 4.28781,1.60252 1.45815,0.82291 2.19444,1.97788 0.73629,1.15497 0.73629,2.72861 0,2.48318 -1.99232,3.98463 -1.97788,1.50146 -5.22622,1.50146 -2.22331,0 -4.0857,-0.79404 -1.84794,-0.79404 -2.81523,-2.22331 -0.95285,-1.42927 -0.95285,-3.27722 l 1.77576,0 q 0,2.22331 1.66027,3.50821 1.66026,1.2849 4.41775,1.2849 2.4543,0 3.94132,-1.08278 1.48702,-1.08278 1.48702,-2.87298 z"
         style="font-style:normal;font-variant:normal;font-weight:300;font-stretch:normal;font-family:Roboto;-inkscape-font-specification:'Roboto Light';fill:#cccccc"
         id="path4266" />
      <path
         inkscape:connector-curvature="0"
         d="m 856.97739,942.44586 1.7902,0 q 1.48701,0 2.59867,-0.51973 1.11166,-0.53418 1.68914,-1.44371 0.59192,-0.92398 0.59192,-2.12225 0,-2.0212 -1.14053,-3.16173 -1.14053,-1.14053 -3.27722,-1.14053 -2.02119,0 -3.32053,1.19828 -1.2849,1.18384 -1.2849,3.13285 l -1.73245,0 q 0,-1.63139 0.82291,-2.97404 0.82292,-1.35709 2.28106,-2.09338 1.45815,-0.73629 3.23391,-0.73629 2.85854,0 4.50437,1.55921 1.64583,1.5592 1.64583,4.27337 0,1.5159 -0.96728,2.8008 -0.95285,1.27046 -2.62755,1.90569 1.96344,0.54861 2.97404,1.89126 1.01059,1.32821 1.01059,3.17616 0,2.69974 -1.76132,4.34556 -1.76133,1.64583 -4.70649,1.64583 -1.87682,0 -3.45047,-0.75073 -1.5592,-0.75073 -2.42543,-2.09337 -0.85178,-1.35709 -0.85178,-3.14729 l 1.73245,0 q 0,2.00676 1.40039,3.27722 1.4004,1.25603 3.59484,1.25603 2.23775,0 3.47933,-1.14053 1.25603,-1.15497 1.25603,-3.33497 0,-2.10781 -1.35708,-3.21947 -1.34265,-1.11166 -3.9702,-1.11166 l -1.73245,0 0,-1.47258 z"
         style="font-style:normal;font-variant:normal;font-weight:300;font-stretch:normal;font-family:Roboto;-inkscape-font-specification:'Roboto Light';fill:#cccccc"
         id="path4268" />
      <path
         inkscape:connector-curvature="0"
         d="m 877.43471,953.89447 0,-21.0204 6.20795,0 q 3.37828,0 5.12517,1.4004 1.74688,1.38596 1.74688,4.10013 0,1.63139 -0.8951,2.84411 -0.88066,1.19828 -2.42543,1.71801 1.83351,0.40424 2.94517,1.80464 1.12609,1.4004 1.12609,3.2339 0,2.78636 -1.80463,4.36 -1.7902,1.55921 -4.99524,1.55921 l -7.03086,0 z m 1.77577,-10.10596 0,8.6045 5.32728,0 q 2.28106,0 3.60927,-1.15496 1.34265,-1.16941 1.34265,-3.23391 0,-1.94901 -1.2849,-3.0751 -1.27046,-1.14053 -3.52265,-1.14053 l -5.47165,0 z m 0,-1.48702 4.85086,0 q 2.22331,-0.0433 3.43602,-1.03947 1.22715,-1.0106 1.22715,-2.93073 0,-2.02119 -1.27046,-2.97404 -1.25603,-0.96728 -3.81139,-0.96728 l -4.43218,0 0,7.91152 z"
         style="font-style:normal;font-variant:normal;font-weight:300;font-stretch:normal;font-family:Roboto;-inkscape-font-specification:'Roboto Light';fill:#cccccc"
         id="path4270" />
      <path
         inkscape:connector-curvature="0"
         d="m 911.10201,944.5248 q 0,2.90186 -1.01059,5.09629 -0.99616,2.19444 -2.85855,3.37828 -1.86238,1.18384 -4.30225,1.18384 -3.68145,0 -5.94808,-2.62755 -2.26662,-2.64198 -2.26662,-7.11748 l 0,-2.16556 q 0,-2.87298 1.0106,-5.08186 1.02503,-2.22331 2.88741,-3.40715 1.86239,-1.19828 4.28782,-1.19828 2.42543,0 4.27338,1.16941 1.86238,1.1694 2.87298,3.30609 1.01059,2.13669 1.0539,4.95192 l 0,2.51205 z m -1.77576,-2.28106 q 0,-3.79695 -1.71801,-5.94808 -1.71801,-2.15112 -4.70649,-2.15112 -2.93073,0 -4.67762,2.16556 -1.73245,2.15113 -1.73245,6.02026 l 0,2.19444 q 0,3.73921 1.73245,5.93364 1.73245,2.18 4.70649,2.18 3.01735,0 4.70649,-2.15112 1.68914,-2.16556 1.68914,-6.02027 l 0,-2.22331 z"
         style="font-style:normal;font-variant:normal;font-weight:300;font-stretch:normal;font-family:Roboto;-inkscape-font-specification:'Roboto Light';fill:#cccccc"
         id="path4272" />
      <path
         inkscape:connector-curvature="0"
         d="m 931.14071,944.5248 q 0,2.90186 -1.0106,5.09629 -0.99615,2.19444 -2.85854,3.37828 -1.86238,1.18384 -4.30225,1.18384 -3.68146,0 -5.94808,-2.62755 -2.26662,-2.64198 -2.26662,-7.11748 l 0,-2.16556 q 0,-2.87298 1.01059,-5.08186 1.02504,-2.22331 2.88742,-3.40715 1.86238,-1.19828 4.28782,-1.19828 2.42543,0 4.27337,1.16941 1.86239,1.1694 2.87298,3.30609 1.0106,2.13669 1.05391,4.95192 l 0,2.51205 z m -1.77576,-2.28106 q 0,-3.79695 -1.71801,-5.94808 -1.71802,-2.15112 -4.70649,-2.15112 -2.93073,0 -4.67762,2.16556 -1.73245,2.15113 -1.73245,6.02026 l 0,2.19444 q 0,3.73921 1.73245,5.93364 1.73245,2.18 4.70649,2.18 3.01735,0 4.70649,-2.15112 1.68914,-2.16556 1.68914,-6.02027 l 0,-2.22331 z"
         style="font-style:normal;font-variant:normal;font-weight:300;font-stretch:normal;font-family:Roboto;-inkscape-font-specification:'Roboto Light';fill:#cccccc"
         id="path4274" />
      <path
         inkscape:connector-curvature="0"
         d="m 949.50465,934.38997 -7.20411,0 0,19.5045 -1.77576,0 0,-19.5045 -7.18967,0 0,-1.5159 16.16954,0 0,1.5159 z"
         style="font-style:normal;font-variant:normal;font-weight:300;font-stretch:normal;font-family:Roboto;-inkscape-font-specification:'Roboto Light';fill:#cccccc"
         id="path4276" />
      <path
         inkscape:connector-curvature="0"
         d="m 964.57697,948.72599 q 0,-1.74688 -1.22716,-2.75748 -1.22715,-1.02503 -4.48993,-1.93457 -3.26278,-0.92397 -4.76424,-2.00675 -2.13669,-1.53034 -2.13669,-4.01351 0,-2.411 1.97788,-3.91245 1.99232,-1.5159 5.08186,-1.5159 2.09338,0 3.7392,0.80848 1.66027,0.80847 2.5698,2.25218 0.90954,1.44371 0.90954,3.21947 l -1.7902,0 q 0,-2.15112 -1.47258,-3.45046 -1.47258,-1.31377 -3.95576,-1.31377 -2.411,0 -3.84027,1.08278 -1.42927,1.06834 -1.42927,2.80079 0,1.60252 1.2849,2.61311 1.2849,1.0106 4.11457,1.7902 2.82967,0.76517 4.28782,1.60252 1.45814,0.82291 2.19443,1.97788 0.73629,1.15497 0.73629,2.72861 0,2.48318 -1.99231,3.98463 -1.97788,1.50146 -5.22623,1.50146 -2.22331,0 -4.08569,-0.79404 -1.84795,-0.79404 -2.81524,-2.22331 -0.95284,-1.42927 -0.95284,-3.27722 l 1.77576,0 q 0,2.22331 1.66026,3.50821 1.66027,1.2849 4.41775,1.2849 2.45431,0 3.94133,-1.08278 1.48702,-1.08278 1.48702,-2.87298 z"
         style="font-style:normal;font-variant:normal;font-weight:300;font-stretch:normal;font-family:Roboto;-inkscape-font-specification:'Roboto Light';fill:#cccccc"
         id="path4278" />
      <path
         inkscape:connector-curvature="0"
         d="m 984.44239,934.38997 -7.20411,0 0,19.5045 -1.77576,0 0,-19.5045 -7.18967,0 0,-1.5159 16.16954,0 0,1.5159 z"
         style="font-style:normal;font-variant:normal;font-weight:300;font-stretch:normal;font-family:Roboto;-inkscape-font-specification:'Roboto Light';fill:#cccccc"
         id="path4280" />
      <path
         inkscape:connector-curvature="0"
         d="m 995.70334,945.1456 -6.10688,0 0,8.74887 -1.7902,0 0,-21.0204 6.82874,0 q 3.36384,0 5.2551,1.63139 1.8913,1.63139 1.8913,4.56212 0,2.02119 -1.1839,3.56596 -1.18382,1.54477 -3.17614,2.13669 l 5.25514,8.93656 0,0.18768 -1.8913,0 -5.08186,-8.74887 z m -6.10688,-1.5159 5.44278,0 q 2.23775,0 3.59483,-1.27046 1.35709,-1.27047 1.35709,-3.29166 0,-2.22331 -1.41484,-3.45046 -1.41483,-1.22715 -3.97019,-1.22715 l -5.00967,0 0,9.23973 z"
         style="font-style:normal;font-variant:normal;font-weight:300;font-stretch:normal;font-family:Roboto;-inkscape-font-specification:'Roboto Light';fill:#cccccc"
         id="path4282" />
      <path
         inkscape:connector-curvature="0"
         d="m 1017.9653,948.00414 -9.5429,0 -2.1656,5.89033 -1.8624,0 7.9549,-21.0204 1.6891,0 7.9549,21.0204 -1.848,0 -2.18,-5.89033 z m -8.9943,-1.51589 8.4313,0 -4.2157,-11.44861 -4.2156,11.44861 z"
         style="font-style:normal;font-variant:normal;font-weight:300;font-stretch:normal;font-family:Roboto;-inkscape-font-specification:'Roboto Light';fill:#cccccc"
         id="path4284" />
      <path
         inkscape:connector-curvature="0"
         d="m 1026.873,945.33328 0,8.56119 -1.7757,0 0,-21.0204 7.1607,0 q 3.2773,0 5.1685,1.67471 1.9057,1.6747 1.9057,4.60543 0,2.9596 -1.8335,4.57655 -1.8191,1.60252 -5.284,1.60252 l -5.3417,0 z m 0,-1.50146 5.385,0 q 2.5843,0 3.9414,-1.22715 1.3571,-1.22715 1.3571,-3.42159 0,-2.18 -1.3571,-3.4649 -1.3427,-1.29934 -3.8259,-1.32821 l -5.5005,0 0,9.44185 z"
         style="font-style:normal;font-variant:normal;font-weight:300;font-stretch:normal;font-family:Roboto;-inkscape-font-specification:'Roboto Light';fill:#cccccc"
         id="path4286" />
    </g>
  </g>
</svg>
